# xmcd
#
# Track frame offsets:
#	150
#	17098
#	36882
#	56694
#	78178
#	97261
#	115942
#	136312
#	153844
#	177020
#	198513
#	213025
#	229436
#	248902
#
# Disc length: 3652 seconds
#
# Revision: 1
# Processed by: cddbd v1.5.2PL0 Copyright (c) Steve Scherf et al.
# Submitted via: audiograbber 1.83.01
#
DISCID=b80e420e
DTITLE=Dionne Warwick - Sings Dionne
DYEAR=2002
DGENRE=Ambient
TTITLE0=Walk On By
TTITLE1=High Upon This Love
TTITLE2=I Say A Little Prayer
TTITLE3=Always Something There To Remind Me
TTITLE4=Reach out for me
TTITLE5=Love begins with you
TTITLE6=If I want to
TTITLE7=Aquarela do Brazil
TTITLE8=I promise you
TTITLE9=Humbly I Pray
TTITLE10=Be my neighbour
TTITLE11=All kinds of people
TTITLE12=What the world needs now is love
TTITLE13=Do You Know The Way To San José
EXTD=
EXTT0=
EXTT1=
EXTT2=
EXTT3=
EXTT4=
EXTT5=
EXTT6=
EXTT7=
EXTT8=
EXTT9=
EXTT10=
EXTT11=
EXTT12=
EXTT13=
PLAYORDER=
